<svg aria-hidden="true" style="position: absolute; width: 0; height: 0; overflow: hidden;" version="1.1" xmlns="http://www.w3.org/2000/svg" xmlns:xlink="http://www.w3.org/1999/xlink">
<defs>
<symbol id="icon-be" viewBox="0 0 50 32">
<path fill="#fff" style="fill: var(--color1, #fff)" d="M20.643 15.125c2.491-1.286 3.857-3.134 3.857-5.946 0-5.705-4.259-7.071-9.080-7.071h-13.42v28.446h13.741c5.223 0 10.045-2.491 10.045-8.277 0-3.536-1.687-6.188-5.143-7.152zM8.188 6.929h5.946c2.25 0 4.259 0.643 4.259 3.295 0 2.411-1.607 3.375-3.857 3.375h-6.348v-6.67zM14.938 25.732h-6.75v-7.875h6.83c2.813 0 4.5 1.205 4.5 4.098s-2.089 3.777-4.58 3.777zM43.705 6.366v-2.813h-11.491v2.813h11.491zM48.286 20.589c0-6.107-3.616-11.25-10.045-11.25-6.348 0-10.607 4.741-10.607 10.929 0 6.429 4.098 10.848 10.607 10.848 4.902 0 8.116-2.25 9.643-6.911h-4.982c-0.563 1.768-2.812 2.652-4.5 2.652-3.295 0-5.063-1.929-5.063-5.223h14.866c0-0.321 0.080-0.723 0.080-1.045zM33.339 18.018c0.161-2.652 2.009-4.339 4.661-4.339 2.893 0 4.339 1.607 4.58 4.339h-9.241z"></path>
</symbol>
<symbol id="icon-inst" viewBox="0 0 30 32">
<path fill="#fff" style="fill: var(--color1, #fff)" d="M15.059 7.919c-4.235 0-7.61 3.441-7.61 7.61 0 4.235 3.375 7.61 7.61 7.61 4.169 0 7.61-3.375 7.61-7.61 0-4.169-3.441-7.61-7.61-7.61zM15.059 20.493c-2.713 0-4.963-2.184-4.963-4.963 0-2.713 2.184-4.897 4.963-4.897 2.713 0 4.897 2.184 4.897 4.897 0 2.779-2.184 4.963-4.897 4.963zM24.721 7.654c0-0.993-0.794-1.787-1.787-1.787s-1.787 0.794-1.787 1.787 0.794 1.787 1.787 1.787c0.993 0 1.787-0.794 1.787-1.787zM29.75 9.441c-0.132-2.382-0.662-4.5-2.382-6.221s-3.838-2.25-6.221-2.382c-2.449-0.132-9.794-0.132-12.243 0-2.382 0.132-4.434 0.662-6.221 2.382-1.721 1.721-2.25 3.838-2.382 6.221-0.132 2.449-0.132 9.794 0 12.243 0.132 2.383 0.662 4.434 2.382 6.221 1.787 1.721 3.838 2.25 6.221 2.382 2.449 0.133 9.794 0.133 12.243 0 2.382-0.132 4.5-0.662 6.221-2.382 1.72-1.787 2.25-3.838 2.382-6.221 0.132-2.448 0.132-9.794 0-12.243zM26.574 24.265c-0.463 1.324-1.522 2.316-2.779 2.846-1.985 0.794-6.618 0.596-8.735 0.596-2.184 0-6.816 0.198-8.735-0.596-1.324-0.529-2.316-1.522-2.846-2.846-0.794-1.919-0.596-6.551-0.596-8.735 0-2.118-0.199-6.75 0.596-8.735 0.529-1.257 1.522-2.25 2.846-2.779 1.919-0.794 6.551-0.596 8.735-0.596 2.118 0 6.75-0.199 8.735 0.596 1.257 0.463 2.25 1.522 2.779 2.779 0.794 1.985 0.596 6.618 0.596 8.735 0 2.184 0.199 6.816-0.596 8.735z"></path>
</symbol>
<symbol id="icon-in" viewBox="0 0 32 32">
<path fill="#fff" style="fill: var(--color1, #fff)" d="M7.281 32v-21.023h-6.539v21.023h6.539zM3.977 8.164c2.109 0 3.797-1.758 3.797-3.867 0-2.039-1.688-3.727-3.797-3.727-2.039 0-3.727 1.688-3.727 3.727 0 2.109 1.688 3.867 3.727 3.867zM31.68 32h0.070v-11.531c0-5.625-1.266-9.984-7.875-9.984-3.164 0-5.273 1.758-6.188 3.375h-0.070v-2.883h-6.258v21.023h6.539v-10.406c0-2.742 0.492-5.344 3.867-5.344s3.445 3.094 3.445 5.555v10.195h6.469z"></path>
</symbol>
</defs>
</svg>
