<svg aria-hidden="true" style="position: absolute; width: 0; height: 0; overflow: hidden;" version="1.1" xmlns="http://www.w3.org/2000/svg" xmlns:xlink="http://www.w3.org/1999/xlink">
<defs>
<symbol id="icon-eye" viewBox="0 0 43 32">
<path d="M42.582 15.161c-1.673-4.327-4.577-8.069-8.353-10.764s-8.259-4.223-12.895-4.398c-4.636 0.174-9.119 1.703-12.895 4.398s-6.68 6.437-8.353 10.764c-0.113 0.312-0.113 0.655 0 0.967 1.673 4.327 4.577 8.069 8.353 10.764s8.26 4.224 12.895 4.398c4.636-0.174 9.119-1.703 12.895-4.398s6.681-6.436 8.353-10.764c0.113-0.312 0.113-0.655 0-0.967zM21.333 28.445c-7.538 0-15.503-5.59-18.39-12.8 2.887-7.211 10.852-12.8 18.39-12.8s15.503 5.589 18.39 12.8c-2.887 7.211-10.852 12.8-18.39 12.8z"></path>
<path d="M21.333 7.111c-1.688 0-3.338 0.5-4.741 1.438s-2.497 2.27-3.143 3.83c-0.646 1.559-0.815 3.275-0.486 4.93s1.142 3.176 2.335 4.369c1.193 1.193 2.714 2.006 4.369 2.335s3.371 0.16 4.93-0.486c1.559-0.646 2.892-1.74 3.83-3.143s1.438-3.053 1.438-4.741c0-2.263-0.899-4.434-2.499-6.034s-3.771-2.499-6.034-2.499zM21.333 21.334c-1.125 0-2.225-0.334-3.161-0.959s-1.665-1.514-2.095-2.553c-0.431-1.040-0.543-2.183-0.324-3.287s0.761-2.117 1.557-2.913c0.796-0.796 1.809-1.337 2.913-1.557s2.247-0.107 3.287 0.324c1.040 0.431 1.928 1.16 2.553 2.095s0.959 2.035 0.959 3.161c0 1.509-0.599 2.956-1.666 4.023s-2.514 1.666-4.023 1.666z"></path>
</symbol>
<symbol id="icon-message" viewBox="0 0 32 32">
<path d="M4.814 4.814c0.097-1.309 0.686-2.532 1.648-3.425s2.226-1.389 3.538-1.389h14.4c0.998 0 1.986 0.197 2.908 0.579s1.76 0.942 2.466 1.647c0.706 0.706 1.266 1.544 1.647 2.466s0.579 1.91 0.579 2.908v9.6c0 1.312-0.496 2.576-1.389 3.538s-2.116 1.55-3.425 1.648c-0.097 1.309-0.686 2.532-1.648 3.425s-2.226 1.389-3.538 1.389h-8.133l-5.867 4.4c-1.318 0.989-3.2 0.048-3.2-1.6v-2.816c-1.306-0.101-2.526-0.691-3.416-1.652s-1.384-2.223-1.384-3.532v-12c0-1.312 0.496-2.576 1.389-3.538s2.116-1.55 3.425-1.648zM7.229 4.8h14.771c1.379 0 2.702 0.548 3.677 1.523s1.523 2.298 1.523 3.677v9.971c0.666-0.096 1.276-0.429 1.717-0.938s0.683-1.16 0.683-1.833v-9.6c0-1.379-0.548-2.702-1.523-3.677s-2.298-1.523-3.677-1.523h-14.4c-0.673 0-1.324 0.243-1.833 0.683s-0.842 1.050-0.938 1.717zM5.2 24.8h2v4.4l5.867-4.4h8.933c0.743 0 1.455-0.295 1.98-0.82s0.82-1.237 0.82-1.98v-12c0-0.743-0.295-1.455-0.82-1.98s-1.237-0.82-1.98-0.82h-16.8c-0.743 0-1.455 0.295-1.98 0.82s-0.82 1.237-0.82 1.98v12c0 1.546 1.254 2.8 2.8 2.8z"></path>
</symbol>
<symbol id="icon-person" viewBox="0 0 28 32">
<path d="M19.563 19c-1.813 0-2.625 1-5.563 1-3 0-3.813-1-5.625-1-4.625 0-8.375 3.812-8.375 8.438v1.562c0 1.688 1.313 3 3 3h22c1.625 0 3-1.312 3-3v-1.562c0-4.625-3.812-8.438-8.438-8.438zM25 29h-22v-1.562c0-3 2.375-5.438 5.375-5.438 0.938 0 2.375 1 5.625 1 3.188 0 4.625-1 5.563-1 3 0 5.438 2.438 5.438 5.438v1.562zM14 18c4.938 0 9-4 9-9 0-4.938-4.063-9-9-9-5 0-9 4.063-9 9 0 5 4 9 9 9zM14 3c3.25 0 6 2.75 6 6 0 3.313-2.75 6-6 6-3.313 0-6-2.688-6-6 0-3.25 2.688-6 6-6z"></path>
</symbol>
</defs>
</svg>
